<svg width="1019.866" height="932.192" xmlns="http://www.w3.org/2000/svg"><path style="fill:#01c3f6;fill-opacity:1;stroke-width:2.18904" d="M393.578 0c-25.086-.016-48.842 1.536-71.269 4.655-23.233 2.802-44.956 6.845-65.168 12.128-40.738 10.638-80.597 28.72-114.068 55.252-56.17 47.13-87.015 117.988-90.911 191.276-4.772 89.838 19.312 170.175 72.258 241.012 7.588 10.128 16.901 21.207 27.934 33.232 30.493 33.23 64.202 65.693 103.758 87.102 26.99 14.6 62.782 18.408 89.313 1.092 27.188-17.687 40.433-47.873 43.498-79.527 2.568-26.414 1.73-54.374-2.517-83.882-3.649-25.349-9.035-53.145-16.157-83.383-9.544-40.54-15.84-75.052-18.89-103.538-3.218-42.336-1.708-86.25 13.2-126.178 8.69-23.248 25.59-49.012 49.188-58.512 1.343-.54 2.386-.183 3.13 1.072.686 1.138.853 3.035.503 5.69.088 12.61.102 25.965.043 40.062-.233 50.742 5.743 99.382 17.928 145.92 15.477 59.06 33.47 119.17 41.197 179.15 7.552 58.47 3.549 120.857-16.35 176.699-1.036 8.916-4.225 17.489-9.566 25.72a39.697 39.697 0 0 0-3.087 5.694c-.832 1.853-1.906 3.902-3.22 6.15a37.313 37.313 0 0 0-2.56 5.274 191.221 191.221 0 0 0-2.188 5.8c-.788 2.16-1.812 3.992-3.067 5.495-3.984 4.816-6.15 10.135-10.003 14.951-10.624 13.251-24.055 26.765-40.298 40.541-25.546 21.672-56.633 37.5-87.235 49.978-11.719 4.787-26.364 9.835-43.934 15.147-42.497 12.872-83.21 20.54-122.146 23.006-18.227 1.168-42.366 1.678-72.414 1.532L.083 931.273a.46.46 0 0 0 .396.723l438.242.196c.846 0 1.314-.422 1.402-1.268 3.086-31.523 9.983-64.798 20.425-94.065 5.268-14.77 11.542-28.214 18.824-40.342 38.943-64.926 97.412-113.304 169.606-137.143 12.346-4.086 26.518-7.845 42.512-11.275a54860.55 54860.55 0 0 1 68.362-14.578c29.18-6.217 58.8-16.33 86.82-30.581 15.191-7.837 29.558-17.095 43.1-27.778 42.045-33.434 72.28-75.324 90.713-125.672A375.226 375.226 0 0 0 998 383.84a1.335 1.313 11.3 0 0-1.01-1.489c-41.044-9.237-124.444-40.868-101.7-99.665 3.087-7.99 10.155-13.11 15.43-19.547a1.51 1.489 20.4 0 0-1.138-2.454c-53.74-1.423-107.786-.678-161.461-.503-6.786.022-9.216-6.218-11.864-11.274-16.272-31.143-34.69-62.575-55.253-94.302-25.349-39.14-54.769-75.895-91.96-102.536-24.736-17.687-51.268-30.381-79.594-38.087C481.226 6.321 451.112 1.838 419.108.54a635.34 635.34 0 0 0-25.53-.54zM138.561 81.25a86.347 86.347 0 0 1 0 0zm-14.73 48.402c.295 1.128 1.002 2.352 1.91 3.387.909 1.034 2.018 1.876 3.124 2.237-1.106-.36-2.215-1.203-3.124-2.237-.908-1.035-1.615-2.26-1.91-3.387zm8.69 12.038c.204.598.598 1.043 1.182 1.335-.584-.292-.978-.737-1.182-1.335zm32.243 37.497c.219.832.7 1.439 1.445 1.818-.744-.38-1.226-.986-1.445-1.818zm3.044 27.671c.043.555.344.903.899 1.05-.555-.147-.856-.495-.9-1.05zm72.587 60.747c.65 1.846 1.531 3.405 2.644 4.678-1.113-1.273-1.995-2.832-2.644-4.678zm204.05 5.44c.2 1.524.33 3.062-.097 4.736.427-1.675.297-3.211.097-4.735zm-191.526 6.664c1 .897 2.102 1.515 3.31 1.854 1.207.34 2.52.4 3.935.18-1.415.22-2.728.16-3.936-.18-1.207-.339-2.31-.957-3.31-1.854zm14.797 7.509c.132.7.526 1.21 1.182 1.531-.656-.32-1.05-.831-1.182-1.531zm33.495 2.2c.283.293.44.693.477 1.213-.037-.518-.196-.92-.477-1.212zm10.856 7.65c.029.495-.184.824-.636.985.452-.16.665-.49.636-.986zm38.59 1.161zm-36.13 1.369a1.576 1.576 0 0 0 1.456.533c.926-.154 1.78-.071 2.557.243-.777-.314-1.63-.393-2.557-.24a1.576 1.576 0 0 1-1.456-.536zm8.308 4.119c.796.317 1.658.385 2.584.203-.926.182-1.788.114-2.584-.203zm127.008 1.472zm108.596 110.547c-.044.628-.37 1.005-.982 1.136.613-.131.938-.508.982-1.136zm62.099 59.212c.842.59 1.43 1.476 1.758 2.65-.329-1.174-.916-2.06-1.758-2.65zm45.975 36.076c.773-.132 1.417.1 1.928.699-.511-.599-1.155-.83-1.928-.7zm75.478 57.949c1.05.61 1.861 1.528 2.43 2.754-.569-1.226-1.38-2.145-2.43-2.754z"/><path fill="#042549" d="M531.844 240.327c9.172-20.336 29.267-36.426 51.902-37.323 23.816-.963 46.67 12.915 57.878 33.12q12.083 21.737 10.66 46.517-.284 4.772-4.64 6.458c-40.016 15.454-80.119 17.884-121.47 2.145a2.693 2.714 7.3 0 1-1.73-2.255q-2.582-26.53 7.4-48.662z" style="stroke-width:2.18904"/><path fill="#fbfbfb" d="M904.351 274.957c10.223-9.456 28.392-13.134 42.052-14.447q33.82-3.284 60.899 4.969 7.902 2.386 11.032 6.764c7.268 10.135-13.331 14.93-19.789 15.717-30.909 3.81-63.722-1.379-93.712-10.813a1.292 1.292 0 0 1-.482-2.19z" style="stroke-width:2.18904"/><path fill="#008bc2" d="M460.197 639.322q-1.554 13.375-9.566 25.721-1.773 2.714-3.087 5.691-1.248 2.78-3.218 6.152-1.51 2.583-2.56 5.275-1.095 2.758-2.19 5.801-1.182 3.24-3.065 5.495c-3.984 4.815-6.15 10.135-10.003 14.95q-15.937 19.877-40.3 40.542c-25.547 21.671-56.63 37.498-87.233 49.975q-17.578 7.18-43.934 15.148-63.745 19.308-122.148 23.007-27.341 1.751-72.413 1.532l96.492-141.06a1.248 1.27 31.1 0 1 1.62-.417q50.982 26.794 108.029 37.323c61.752 11.405 126.241 9.325 165.994-43.255q15.082-19.92 27.582-51.88z" style="stroke-width:2.18904"/></svg>