<?xml version="1.0" encoding="UTF-8" standalone="no"?>
<svg
   version="1.1"
   viewBox="0 0 1012.6198 546.80005"
   id="svg1182"
   sodipodi:docname="Ruff_Logo.svg"
   inkscape:version="1.1.2 (0a00cf5339, 2022-02-04)"
   width="1012.6198"
   height="546.80005"
   xmlns:inkscape="http://www.inkscape.org/namespaces/inkscape"
   xmlns:sodipodi="http://sodipodi.sourceforge.net/DTD/sodipodi-0.dtd"
   xmlns="http://www.w3.org/2000/svg"
   xmlns:svg="http://www.w3.org/2000/svg">
  <defs
     id="defs1186" />
  <sodipodi:namedview
  di:namedview
     id="namedview1184"
     pagecolor="#ffffff"
     bordercolor="#666666"
     borderopacity="1.0"
     inkscape:pageshadow="2"
     inkscape:pageopacity="0.0"
     inkscape:pagecheckerboard="0"
     showgrid="false"
     inkscape:zoom="0.28415472"
     inkscape:cx="552.51589"
     inkscape:cy="114.37431"
     inkscape:window-width="1920"
     inkscape:window-height="1080"
     inkscape:window-x="1920"
     inkscape:window-y="0"
     inkscape:window-maximized="1"
     inkscape:current-layer="svg1182" />
  <
     id="path1138"
     style="fill:#01c3f6;fill-opacity:1;stroke-width:1.28398"
     d="M 508.61072,7.5439822e-5 C 493.89635,-0.00992456 479.96233,0.90088544 466.80799,2.7305454 c -13.62728,1.64349 -26.36923,4.01462 -38.22461,7.11328 -23.89482,6.2401196 -47.27425,16.8464096 -66.90625,32.4082096 -32.94685,27.64403 -51.03875,69.205815 -53.32422,112.193355 -2.79908,52.69442 11.32769,99.81575 42.38281,141.36524 4.45112,5.94054 9.91353,12.43887 16.38477,19.49219 17.8858,19.49076 37.6579,38.53255 60.85937,51.08984 15.83143,8.56414 36.82492,10.79689 52.38672,0.64063 15.94699,-10.37453 23.71609,-28.08018 25.51367,-46.64649 1.50653,-15.49333 1.01436,-31.89317 -1.47656,-49.20117 -2.13996,-14.86845 -5.29936,-31.1722 -9.47656,-48.9082 -5.59814,-23.77926 -9.29108,-44.02165 -11.08008,-60.73047 -1.88746,-24.83211 -1.00169,-50.59003 7.74219,-74.009775 5.09739,-13.63584 15.0103,-28.74785 28.85156,-34.32031 0.7875,-0.31672 1.39938,-0.10724 1.83594,0.62891 0.40232,0.66767 0.50036,1.78 0.29492,3.33789 0.0514,7.3957 0.0596,15.22924 0.0254,23.49804 -0.13696,29.762605 3.36815,58.292515 10.51562,85.589855 9.07771,34.6417 19.63163,69.8991 24.16407,105.08008 4.42973,34.29503 2.0815,70.88832 -9.58985,103.64257 -0.60775,5.23007 -2.47843,10.25819 -5.61133,15.08594 -0.69334,1.06143 -1.29695,2.17572 -1.81054,3.33984 -0.48791,1.08711 -1.11828,2.28921 -1.88867,3.60743 -0.59063,1.01006 -1.09108,2.04089 -1.50196,3.09375 -0.428,1.07854 -0.85521,2.21252 -1.2832,3.40234 -0.46223,1.26685 -1.06268,2.34099 -1.79883,3.22266 -2.33684,2.82474 -3.6074,5.94479 -5.86719,8.76953 -6.23157,7.77234 -14.1096,15.6988 -23.63672,23.77929 -14.98399,12.71137 -33.21797,21.99579 -51.16796,29.31446 -6.87356,2.80763 -15.46349,5.76898 -25.76954,8.88476 -24.92627,7.54979 -48.80685,12.04753 -71.64453,13.49414 -10.69124,0.68479 -24.84987,0.98404 -42.47461,0.89844 l -35.42578,54.35156 a 0.26963515,0.26963515 0 0 0 0.23242,0.42383 l 257.05079,0.11524 c 0.49642,0 0.77086,-0.24767 0.82226,-0.74414 1.81042,-18.48927 5.8559,-38.00707 11.98047,-55.17383 3.09011,-8.66258 6.76966,-16.54889 11.04102,-23.66211 22.84195,-38.08276 57.13686,-66.45891 99.48242,-80.44141 7.24163,-2.39676 15.55396,-4.60171 24.93554,-6.61328 13.40472,-2.86755 26.76997,-5.71747 40.09766,-8.55078 17.11541,-3.64649 34.48893,-9.57882 50.92383,-17.9375 8.91079,-4.59664 17.33771,-10.02717 25.28125,-16.29297 24.66092,-19.61061 42.39595,-44.18142 53.20703,-73.71289 4.58808,-12.52307 8.01364,-25.35989 10.27344,-38.50781 a 0.78322591,0.77038614 11.3 0 0 -0.5918,-0.87305 c -24.07457,-5.41839 -72.99287,-23.97136 -59.65234,-58.45898 1.8104,-4.68652 5.95639,-7.68996 9.05078,-11.46485 a 0.88594407,0.8731043 20.4 0 0 -0.66797,-1.43945 c -31.52164,-0.83459 -63.22197,-0.39759 -94.70508,-0.29492 -3.98033,0.0128 -5.40537,-3.64728 -6.95898,-6.61328 -9.54424,-18.2667 -20.34738,-36.7034 -32.40821,-55.312505 -14.86845,-22.95751 -32.12469,-44.51658 -53.93945,-60.14258 -14.50893,-10.37454 -30.07087,-17.82025 -46.68555,-22.3398496 -16.55473,-4.49391 -34.21848,-7.12293 -52.99023,-7.88475996 -5.07813,-0.20758 -10.06982,-0.3132 -14.97461,-0.316410000178 z M 359.03064,47.656325 c -1.78472,1.43377 -3.47725,2.99851 -5.08008,4.69336 -1.60283,1.69485 -3.11617,3.52064 -4.53711,5.47656 1.42094,-1.95592 2.93428,-3.78171 4.53711,-5.47656 1.60283,-1.69485 3.29536,-3.25958 5.08008,-4.69336 z m -8.64062,28.39063 c 0.17334,0.66125 0.58824,1.37965 1.12109,1.98633 0.53285,0.60667 1.18363,1.10064 1.83203,1.3125 -0.6484,-0.21186 -1.29918,-0.70582 -1.83203,-1.3125 -0.53285,-0.60668 -0.94776,-1.32509 -1.12109,-1.98633 z m 5.09765,7.06054 c 0.11984,0.35096 0.35098,0.61201 0.69336,0.78321 -0.34239,-0.1712 -0.57352,-0.43225 -0.69336,-0.78321 z m 18.91211,21.994155 c 0.1284,0.4879 0.4111,0.84383 0.84766,1.0664 -0.43656,-0.22256 -0.71926,-0.57849 -0.84766,-1.0664 z m 1.78516,16.23046 c 0.0257,0.32528 0.20207,0.52964 0.52734,0.61524 -0.32528,-0.0856 -0.50167,-0.28997 -0.52734,-0.61524 z m 42.57617,35.63086 c 0.38091,1.08283 0.89809,1.9973 1.55078,2.74414 -0.65269,-0.74684 -1.16987,-1.66132 -1.55078,-2.74414 z m 119.68555,3.19141 c 0.11708,0.89336 0.19312,1.79587 -0.0566,2.77734 0.25038,-0.98224 0.1738,-1.88337 0.0566,-2.77734 z m -112.33985,3.9082 c 0.58635,0.52643 1.23308,0.88888 1.94141,1.08789 0.70833,0.19902 1.47829,0.23387 2.30859,0.10547 -0.8303,0.1284 -1.60026,0.0935 -2.30859,-0.10547 -0.70833,-0.19901 -1.35505,-0.56146 -1.94141,-1.08789 z m 8.67969,4.4043 c 0.0771,0.41087 0.30817,0.71012 0.69336,0.89844 -0.38519,-0.18832 -0.61632,-0.48757 -0.69336,-0.89844 z m 19.64649,1.29101 c 0.16548,0.17129 0.25788,0.40636 0.27929,0.71094 -0.0214,-0.30387 -0.11452,-0.53974 -0.27929,-0.71094 z m 6.36718,4.48633 c 0.0171,0.29104 -0.10769,0.48397 -0.37304,0.57813 0.26537,-0.0942 0.39018,-0.28709 0.37304,-0.57813 z m 22.63477,0.68164 c 0.0856,0.41088 9.4e-4,0.78336 -0.25586,1.11719 0.25681,-0.33384 0.34147,-0.70632 0.25586,-1.11719 z m -21.19141,0.80274 a 0.92446337,0.92446337 0 0 0 0.85352,0.3125 c 0.54355,-0.0899 1.04419,-0.0415 1.5,0.14258 -0.45582,-0.18404 -0.95645,-0.23051 -1.5,-0.14063 a 0.92446337,0.92446337 0 0 1 -0.85352,-0.31445 z m 4.87305,2.41601 c 0.46651,0.18618 0.97208,0.22614 1.51562,0.11914 -0.54355,0.107 -1.04911,0.067 -1.51562,-0.11914 z m 74.49609,0.86328 c 1.4723,1.27541 2.80749,2.71888 4.00586,4.32813 -1.19837,-1.60925 -2.53356,-3.05271 -4.00586,-4.32813 z m 63.69727,64.8418 c -0.0257,0.36807 -0.21667,0.58897 -0.57617,0.66602 0.35952,-0.077 0.5505,-0.29795 0.57617,-0.66602 z m 36.42383,34.73047 c 0.49433,0.34667 0.83865,0.86562 1.03125,1.55469 -0.1926,-0.68905 -0.53692,-1.20802 -1.03125,-1.55469 z m 26.96679,21.16016 c 0.45368,-0.077 0.83126,0.0592 1.13086,0.41015 -0.2996,-0.35094 -0.67718,-0.48719 -1.13086,-0.41015 z m 44.27149,33.99023 c 0.61631,0.35737 1.09195,0.89621 1.42578,1.61524 -0.33384,-0.71905 -0.80947,-1.25787 -1.42578,-1.61524 z" />
  <path
     fill="#042549"
     d="m 589.71042,140.96382 c 5.37989,-11.92815 17.16679,-21.36538 30.4431,-21.89181 13.96968,-0.56494 27.37439,7.57546 33.94836,19.42657 q 7.08755,12.7499 6.25296,27.28451 -0.16692,2.79907 -2.72203,3.78773 c -23.47109,9.06489 -46.99355,10.49009 -71.24789,1.2583 a 1.5792916,1.5921313 7.3 0 1 -1.01433,-1.32249 q -1.5151,-15.5618 4.33983,-28.54281 z"
     id="path1146"
     style="stroke-width:1.28398" />
  <path
     fill="#fbfbfb"
     d="m 808.20478,161.27633 c 5.99618,-5.54677 16.65319,-7.70386 24.6652,-8.47424 q 19.83744,-1.92597 35.72024,2.91463 4.63515,1.39954 6.47123,3.96748 c 4.26282,5.94482 -7.81941,8.75673 -11.60714,9.21896 -18.12975,2.23411 -37.37656,-0.80892 -54.96705,-6.34285 a 0.75754637,0.75754637 0 0 1 -0.28248,-1.28398 z"
     id="path1148"
     style="stroke-width:1.28398" />
  <path
     fill="#008bc2"
     d="m 254.57962,300.15127 q -13.62299,-25.78224 -21.99451,-52.96405 c -0.321,-1.01434 -1.06572,-2.24696 -1.59214,-3.20994 q -0.34667,-0.64198 0.24395,-1.07853 0.59063,-0.43655 0.95015,-1.16843 l 40.06008,-0.34666 a 1.168419,1.1812587 85.7 0 1 1.18126,1.01433 q 4.22428,29.10776 11.79975,57.23969 0.19259,0.68051 -0.5136,0.66768 z"
     id="path1150"
     style="stroke-width:1.28398" />
  <path
     fill="#01c3f6"
     d="m 996.37167,246.23709 c 25.79513,13.81558 15.84433,53.4648 -12.86553,53.63172 q -41.27985,0.24394 -81.46833,0.0641 a 0.68050775,0.69334753 7.9 0 1 -0.65482,-0.87311 c 5.18725,-18.77174 7.37002,-37.33804 7.01051,-56.41794 q -0.0257,-0.88593 0.86027,-0.87311 31.53447,0.1926 63.40277,0.0129 c 7.60114,-0.0514 16.89714,0.80891 23.71513,4.45541 z"
     id="path1152"
     style="fill:#01c3f6;fill-opacity:1;stroke-width:1.28398" />
  <path
     fill="#019ed6"
     d="m 232.18707,241.73032 q -0.35952,0.73188 -0.95015,1.16843 -0.59062,0.43655 -0.24395,1.07853 c 0.52642,0.96298 1.27114,2.1956 1.59214,3.20994 q 8.37152,27.18181 21.99451,52.96405 l -219.174861,0.0771 c -4.558108,-0.20544 -9.437223,-0.0129 -13.571634,-0.93732 Q 4.358207,295.33635 0.64750394,278.67033 c -1.1812567,-5.30282 -0.7447044,-12.23631 1.29682726,-17.50061 q 6.458393,-16.65317 25.4227308,-18.8873 z"
     id="path1154"
     style="fill:#01c3f6;fill-opacity:1;stroke-width:1.28398" />
  <path
     fill="#019ed6"
     d="m 75.837195,366.12201 177.740915,0.16692 q 9.00068,8.76955 16.06257,17.80876 13.98249,17.88579 26.98919,36.5163 a 1.7462086,1.7975676 83.1 0 0 0.86026,0.65483 l 1.56644,0.59062 q -0.28246,1.68202 -1.77188,1.66917 -59.15282,-0.11555 -188.47497,0.0514 -61.93904,-0.19261 -80.210038,-0.11556 C 12.216139,423.52861 0.06971994,412.10128 0.24947054,395.51229 0.45490894,377.70352 13.859636,366.44305 31.527149,366.27613 q 22.135764,-0.21827 44.310046,-0.15408 z"
     id="path1156"
     style="fill:#01c3f6;fill-opacity:1;stroke-width:1.28398" />
  <path
     fill="#008bc2"
     d="m 299.05657,421.85944 -1.56644,-0.59062 a 1.7462086,1.7975676 83.1 0 1 -0.86026,-0.65483 q -13.0067,-18.63051 -26.98919,-36.5163 -7.06189,-9.03921 -16.06257,-17.80876 l 80.72364,-0.0257 a 0.75754637,0.75754637 0 0 1 0.64199,1.16842 z"
     id="path1158"
     style="stroke-width:1.28398" />
  <path
     fill="#01c3f6"
     d="m 788.13622,423.50294 q -10.43873,-0.34668 -17.65468,0.0514 -6.3942,0.35951 -0.39804,-1.8746 c 18.86164,-6.99768 37.92868,-14.14943 55.99425,-23.52245 q 23.09873,-11.50444 40.5865,-30.22482 a 3.6850138,3.672174 20.5 0 1 2.56796,-1.16842 q 12.89113,-0.46224 24.97335,-0.321 38.39091,0.46223 77.69343,0.0641 15.61316,-0.15408 21.55798,2.00301 c 13.87993,5.02035 22.11023,19.79892 18.18123,34.23082 -2.6579,9.7197 -11.2348,19.42657 -21.96897,20.274 q -6.06037,0.48792 -12.19776,0.48792 -94.66763,-0.0385 -189.33525,0 z"
     id="path1160"
     style="fill:#01c3f6;fill-opacity:1;stroke-width:1.28398" />
  <path
     fill="#008bc2"
     d="m 547.68587,374.99429 q -0.91163,7.8451 -5.61098,15.08673 -1.04002,1.59214 -1.81041,3.33833 -0.73187,1.63066 -1.88745,3.60798 -0.88593,1.5151 -1.50225,3.09438 -0.64199,1.61781 -1.28397,3.40254 -0.69336,1.90029 -1.79757,3.22279 c -2.33684,2.82474 -3.60797,5.94482 -5.86778,8.76955 q -9.34735,11.65852 -23.63801,23.77927 c -14.98401,12.71137 -33.21648,21.99451 -51.16648,29.31319 q -10.31034,4.21144 -25.76941,8.88512 -37.38941,11.32467 -71.64593,13.49459 -16.03686,1.02719 -42.47395,0.89879 l 56.59771,-82.73948 a 0.73186684,0.74470659 31.1 0 1 0.95015,-0.24396 q 29.90381,15.71588 63.36425,21.89181 c 36.22099,6.68952 74.04695,5.46974 97.36397,-25.37138 q 8.8466,-11.68419 16.17811,-30.43025 z"
     id="path1162"
     style="stroke-width:1.28398" />
  <path
     fill="#019ed6"
     d="m 181.04626,489.28107 11.94099,0.14124 q 5.22579,4.82775 8.55128,9.20612 6.41989,8.47424 13.18645,19.45225 8.47425,13.72571 13.90546,28.27316 l -56.81597,0.41088 q -69.48883,0.0256 -139.029014,-0.0514 c -4.134411,0 -8.975007,0.0771 -12.775579,-1.02718 C 9.0832332,542.51472 0.78874874,533.64243 0.18527694,522.06097 -0.57227176,507.87302 5.7192143,496.0476 19.611843,491.25836 c 4.699365,-1.63065 10.361703,-1.96448 15.369207,-1.9388 q 73.01977,0.34666 146.06521,-0.0385 z"
     id="path1164"
     style="fill:#01c3f6;fill-opacity:1;stroke-width:1.28398" />
  <path
     fill="#008bc2"
     d="m 192.98725,489.42231 71.7101,-0.0642 a 0.74470659,0.74470659 0 0 1 0.60347,1.16842 q -19.13126,27.16895 -36.67038,55.82731 -5.43121,-14.54745 -13.90546,-28.27316 -6.76656,-10.97801 -13.18645,-19.45226 -3.32549,-4.37836 -8.55128,-9.20611 z"
     id="path1166"
     style="stroke-width:1.28398" />
  <path
     id="path1168"
     style="fill:#01c3f6;fill-opacity:1;stroke-width:1.28398"
     d="m 839.82947,489.78133 c -54.27797,0.24822 -108.54773,0.38131 -162.80859,0.39844 -10.9395,0.009 -18.69979,0.38931 -23.2793,1.14258 -33.13517,5.46117 -55.96012,23.63048 -68.47461,54.50586 -0.23112,0.5735 -0.0382,0.85937 0.57812,0.85937 l 348.54883,0.0645 c 0.11984,-0.009 0.23638,-0.0168 0.34766,-0.0254 15.62171,0.0942 31.25494,0.0973 46.90234,0.0117 4.67368,-0.0257 8.07248,-0.31981 10.19532,-0.88476 10.78556,-2.85043 18.03926,-12.01835 19.75976,-23.06055 1.7463,-11.05504 -3.6065,-22.48209 -13.32613,-28.41406 -4.75081,-2.88465 -10.4061,-4.35804 -16.96293,-4.41797 -15.63029,-0.13697 -31.2635,-0.13697 -46.90235,0 -7.83225,0.29533 -15.11533,0.51325 -21.84765,0.65234 -6.73232,0.1391 -12.9145,0.20073 -18.54688,0.1836 5.63238,0.0171 11.81456,-0.0445 18.54688,-0.1836 6.73232,-0.13909 14.0154,-0.35703 21.84765,-0.65234 z m 24.07422,1.58008 c -1.59213,0.17973 -3.18836,0.2943 -4.78906,0.3457 1.6007,-0.0513 3.19693,-0.16593 4.78906,-0.3457 z m 5.57226,1.50195 c 0.214,0.0128 0.37543,0.076 0.48243,0.18946 0.10699,0.11341 0.16015,0.27624 0.16015,0.49023 0,-0.214 -0.0532,-0.37682 -0.16015,-0.49023 -0.107,-0.11342 -0.26843,-0.17662 -0.48243,-0.18946 z m 4.1211,1.21289 c 0.22255,0.0171 0.44225,0.0919 0.65625,0.22461 -0.214,-0.13266 -0.4337,-0.20749 -0.65625,-0.22461 z m 0,0 c -0.22256,-0.0171 -0.44858,0.0246 -0.67969,0.12305 0.23111,-0.0985 0.45713,-0.14016 0.67969,-0.12305 z m 1.97851,0.58399 c 0.27392,-0.0128 0.4517,0.0423 0.53516,0.16211 0.0832,0.1195 0.071,0.30519 -0.0352,0.55664 -2.9e-4,6.9e-4 3e-4,0.001 0,0.002 -0.0599,0.13695 -0.15481,0.21334 -0.2832,0.23047 0.12838,-0.0171 0.22327,-0.0955 0.2832,-0.23242 0.107,-0.25251 0.11862,-0.43681 0.0352,-0.55664 -0.0835,-0.11984 -0.26124,-0.17494 -0.53516,-0.16211 z m 2.99414,4.97851 c 0.0706,0.0193 0.0956,0.20885 0.0742,0.56836 0.0214,-0.35951 -0.004,-0.5491 -0.0742,-0.56836 z m 0,0 c -0.0706,-0.0193 -0.18697,0.13214 -0.34961,0.45313 -0.10267,0.20543 -0.0976,0.42318 0.0137,0.6543 -0.11126,-0.23112 -0.1164,-0.44887 -0.0137,-0.6543 0.16261,-0.32099 0.279,-0.47239 0.34961,-0.45313 z m 4.79883,3.21485 c 0.26963,-0.0342 0.4925,0.006 0.66797,0.12109 0.17404,0.11462 0.3014,0.30444 0.38281,0.56641 -0.0814,-0.26273 -0.20844,-0.45158 -0.38281,-0.56641 -0.17547,-0.11556 -0.39834,-0.15532 -0.66797,-0.12109 z m 2.23438,2.15625 c 1.24973,0.69763 2.42861,1.4792 3.53711,2.34375 1.1085,0.86454 2.14601,1.81229 3.11328,2.84375 -0.96726,-1.03147 -2.00478,-1.97921 -3.11328,-2.84375 -1.1085,-0.86455 -2.28738,-1.64613 -3.53711,-2.34375 z m 12.22265,9.35937 c 0.428,0.0214 0.80859,0.0931 1.13868,0.21289 0.32487,0.11795 0.60003,0.28475 0.83007,0.49805 -0.23024,-0.21376 -0.50471,-0.37992 -0.83007,-0.49805 -0.33009,-0.11983 -0.71068,-0.19149 -1.13868,-0.21289 z m 1.98633,0.72852 c 0.22884,0.21705 0.41201,0.47947 0.54492,0.79297 0.13363,0.31517 0.21919,0.6811 0.25586,1.09375 -0.0366,-0.41342 -0.12203,-0.77811 -0.25586,-1.09375 -0.13271,-0.31302 -0.31657,-0.57611 -0.54492,-0.79297 z m 14.5,10.63476 c 0.321,0 0.50724,0.06 0.5586,0.17774 0.0514,0.1177 -0.0317,0.2939 -0.25,0.5293 0.21828,-0.2354 0.30135,-0.4116 0.25,-0.5293 -0.0514,-0.1177 -0.2376,-0.17774 -0.5586,-0.17774 z m 0.10352,1.70899 c 0.12886,0.37369 0.13618,0.60903 0.0215,0.70898 -0.11387,0.0992 -0.34722,0.0651 -0.70117,-0.10547 0.35523,0.1712 0.58776,0.20605 0.70117,0.10547 0.11342,-0.10058 0.10692,-0.33662 -0.0215,-0.70898 z m 10.33594,14.01953 c 0.45366,0.20543 0.85784,0.46491 1.21093,0.77734 0.3531,0.31244 0.65569,0.67822 0.90821,1.09766 -0.25252,-0.41944 -0.55511,-0.78522 -0.90821,-1.09766 -0.35309,-0.31243 -0.75726,-0.57191 -1.21093,-0.77734 z m 5.6621,3.10742 c 0.0941,0.0942 0.091,0.18393 -0.0117,0.26953 0.10276,-0.0856 0.10587,-0.17537 0.0117,-0.26953 z" />
</svg>
