<?xml version="1.0" encoding="UTF-8" standalone="no"?>
<svg
   version="1.1"
   viewBox="0 0 1019.8662 932.1922"
   id="svg1182"
   sodipodi:docname="Ruff_Head.svg"
   inkscape:version="1.1.2 (0a00cf5339, 2022-02-04)"
   width="1019.8662"
   height="932.1922"
   xmlns:inkscape="http://www.inkscape.org/namespaces/inkscape"
   xmlns:sodipodi="http://sodipodi.sourceforge.net/DTD/sodipodi-0.dtd"
   xmlns="http://www.w3.org/2000/svg"
   xmlns:svg="http://www.w3.org/2000/svg">
  <defs
     id="defs1186" />
  <sodipodi:namedview
     id="namedview1184"
     pagecolor="#ffffff"
     bordercolor="#666666"
     borderopacity="1.0"
     inkscape:pageshadow="2"
     inkscape:pageopacity="0.0"
     inkscape:pagecheckerboard="0"
     showgrid="false"
     inkscape:zoom="0.80371093"
     inkscape:cx="618.38154"
     inkscape:cy="453.52127"
     inkscape:window-width="956"
     inkscape:window-height="1032"
     inkscape:window-x="2880"
     inkscape:window-y="0"
     inkscape:window-maximized="1"
     inkscape:current-layer="svg1182" />
  <path
     id="path1138"
     style="fill:#01c3f6;fill-opacity:1;stroke-width:2.18904"
     d="M 393.57815,1.2829087e-4 C 368.49186,-0.01625171 344.73596,1.5359023 322.30934,4.6552563 299.07641,7.4572213 277.35285,11.499718 257.1408,16.782573 216.4029,27.421257 176.54368,45.503754 143.07339,72.034824 86.902824,119.16469 56.058228,190.02272 52.161766,263.31149 c -4.772107,89.83789 19.3124,170.1743 72.257794,241.01138 7.58864,10.12793 16.90142,21.20683 27.93413,33.23193 30.49322,33.22949 64.20236,65.69353 103.75818,87.10226 26.99075,14.60086 62.78223,18.40745 89.3133,1.0922 27.18776,-17.68738 40.43318,-47.87346 43.49785,-79.52686 2.56846,-26.41434 1.72937,-54.37417 -2.51736,-83.88231 -3.64839,-25.34898 -9.03479,-53.14499 -16.15644,-83.38281 -9.54418,-40.54089 -15.84022,-75.05183 -18.89025,-103.53842 -3.21791,-42.33588 -1.70778,-86.25016 13.19953,-126.1781 8.69046,-23.24753 25.59082,-49.01176 49.18857,-58.512156 1.3426,-0.53996 2.38578,-0.18283 3.13007,1.07222 0.68591,1.1383 0.85305,3.0347 0.5028,5.69071 0.0876,12.608816 0.10168,25.964086 0.0433,40.061446 -0.23349,50.74179 5.74232,99.38198 17.92792,145.92078 15.47644,59.0601 33.46966,119.16988 41.19694,179.14937 7.55218,58.46906 3.54872,120.85639 -16.34958,176.69859 -1.03614,8.91666 -4.22543,17.48902 -9.56667,25.71978 -1.18206,1.80962 -2.21115,3.70935 -3.08676,5.69404 -0.83183,1.8534 -1.90653,3.90285 -3.21996,6.15026 -1.00696,1.72203 -1.86017,3.47948 -2.56067,5.27449 -0.72969,1.83878 -1.45804,3.77208 -2.18771,5.80058 -0.78805,2.15984 -1.81175,3.99113 -3.0668,5.49427 -3.98403,4.81585 -6.15019,10.13518 -10.00288,14.95104 -10.6241,13.25094 -24.05523,26.76463 -40.29787,40.54093 -25.54596,21.67142 -56.63279,37.50028 -87.23545,49.97776 -11.71862,4.78668 -26.36346,9.83544 -43.93408,15.14748 -42.49641,12.87153 -83.21003,20.53965 -122.14563,23.00596 -18.22733,1.16749 -42.366155,1.67767 -72.414296,1.53173 L 0.08287125,931.27316 a 0.45969672,0.45969672 0 0 0 0.3962493,0.72258 L 438.72096,932.19221 c 0.84635,0 1.31423,-0.42225 1.40187,-1.26866 3.08655,-31.52208 9.98363,-64.79767 20.4253,-94.065 5.26829,-14.7687 11.5415,-28.21394 18.82367,-40.34116 38.94288,-64.92671 97.41173,-113.30476 169.60602,-137.1433 12.34613,-4.0862 26.51769,-7.84538 42.5122,-11.27487 22.8535,-4.88884 45.6397,-9.74762 68.36187,-14.5781 29.1798,-6.21684 58.79964,-16.33077 86.81923,-30.58135 15.19187,-7.83674 29.55879,-17.09516 43.10161,-27.77763 42.04402,-33.43382 72.28019,-75.32421 90.71183,-125.67194 7.82214,-21.35039 13.66233,-43.23569 17.51507,-65.65137 a 1.3353095,1.3134192 11.3 0 0 -1.009,-1.48844 c -41.04435,-9.23773 -124.44439,-40.8684 -101.70033,-99.6658 3.08652,-7.98998 10.15496,-13.11049 15.43054,-19.54624 a 1.5104321,1.4885417 20.4 0 0 -1.13882,-2.45409 c -53.74074,-1.42289 -107.78614,-0.67786 -161.4612,-0.50281 -6.786,0.0218 -9.21552,-6.21819 -11.86425,-11.27489 -16.27183,-31.14259 -34.68994,-62.57504 -55.25225,-94.3014 C 655.65533,115.46526 626.23544,78.709544 589.04381,52.069034 564.30775,34.38164 537.77644,21.687567 509.45034,13.982166 481.22644,6.3205713 451.11179,1.8383953 419.10813,0.53956529 410.4505,0.18566529 401.94025,0.00558929 393.57815,1.2829087e-4 Z M 138.56143,81.248514 c -3.04274,2.44441 -5.9283,5.11211 -8.66094,8.00163 -2.73264,2.88953 -5.31271,6.00229 -7.73526,9.33691 2.42255,-3.33462 5.00262,-6.44738 7.73526,-9.33691 2.73264,-2.88952 5.6182,-5.5572 8.66094,-8.00163 z m -14.73125,48.402736 c 0.29552,1.12735 1.00288,2.35214 1.91132,3.38646 0.90845,1.0343 2.01796,1.87646 3.1234,2.23766 -1.10544,-0.3612 -2.21495,-1.20334 -3.1234,-2.23766 -0.90844,-1.03432 -1.61581,-2.25912 -1.91132,-3.38646 z m 8.69089,12.0374 c 0.20432,0.59835 0.59839,1.04341 1.18211,1.33528 -0.58374,-0.29187 -0.97779,-0.73693 -1.18211,-1.33528 z m 32.24296,37.49748 c 0.21891,0.83181 0.70089,1.43863 1.44517,1.81808 -0.74428,-0.37943 -1.22626,-0.98625 -1.44517,-1.81808 z m 3.0435,27.67105 c 0.0438,0.55457 0.3445,0.90299 0.89906,1.04892 -0.55457,-0.14593 -0.8553,-0.49436 -0.89906,-1.04892 z m 72.58744,60.7465 c 0.64941,1.8461 1.53114,3.40516 2.64389,4.67844 -1.11275,-1.27328 -1.99448,-2.83236 -2.64389,-4.67844 z m 204.05,5.44098 c 0.19961,1.52307 0.32926,3.06175 -0.0966,4.73505 0.42688,-1.67461 0.29631,-3.21093 0.0966,-4.73505 z m -191.52643,6.66303 c 0.99966,0.8975 2.10225,1.51544 3.30988,1.85473 1.20762,0.3393 2.52031,0.39872 3.93588,0.17981 -1.41557,0.21891 -2.72826,0.15949 -3.93588,-0.17981 -1.20763,-0.33929 -2.31021,-0.95723 -3.30988,-1.85473 z m 14.79787,7.50882 c 0.13135,0.70049 0.52539,1.21067 1.18209,1.53174 -0.6567,-0.32107 -1.05075,-0.83125 -1.18209,-1.53174 z m 33.49498,2.20102 c 0.28213,0.29204 0.43966,0.6928 0.47617,1.21208 -0.0365,-0.51807 -0.19525,-0.92019 -0.47617,-1.21208 z m 10.85531,7.64868 c 0.0292,0.49618 -0.1836,0.82511 -0.63599,0.98564 0.45243,-0.16053 0.66521,-0.48946 0.63599,-0.98564 z m 38.58966,1.16212 c 0.14594,0.7005 10e-4,1.33553 -0.4362,1.90467 0.43783,-0.56916 0.58216,-1.20418 0.4362,-1.90467 z m -36.1289,1.36857 a 1.5761031,1.5761031 0 0 0 1.45516,0.53278 c 0.92668,-0.15323 1.78022,-0.0707 2.55733,0.24308 -0.77713,-0.31377 -1.63065,-0.39299 -2.55733,-0.23976 a 1.5761031,1.5761031 0 0 1 -1.45516,-0.5361 z m 8.30799,4.11903 c 0.79534,0.31741 1.65728,0.38554 2.58396,0.20312 -0.92669,0.18242 -1.78862,0.11434 -2.58396,-0.20312 z m 127.00721,1.47178 c 2.5101,2.17444 4.78645,4.63537 6.82953,7.37896 -2.04308,-2.74359 -4.31943,-5.20451 -6.82953,-7.37896 z m 108.59647,110.54777 c -0.0438,0.62752 -0.3694,1.00412 -0.9823,1.13549 0.61294,-0.13134 0.93854,-0.50797 0.9823,-1.13549 z m 62.09842,59.21143 c 0.84277,0.59103 1.4298,1.47578 1.75816,2.65057 -0.32836,-1.17476 -0.91539,-2.05954 -1.75816,-2.65057 z m 45.97525,36.07562 c 0.77347,-0.13134 1.4172,0.10098 1.92798,0.69926 -0.51078,-0.59832 -1.15451,-0.8306 -1.92798,-0.69926 z m 75.47777,57.94941 c 1.05074,0.60928 1.86165,1.52793 2.43078,2.7538 -0.56915,-1.2259 -1.38004,-2.14452 -2.43078,-2.7538 z" />
  <path
     fill="#042549"
     d="m 531.84376,240.32698 c 9.17208,-20.33611 29.26739,-36.42551 51.90196,-37.323 23.81668,-0.96317 46.67017,12.91528 57.87803,33.12005 q 12.08345,21.7371 10.66056,46.51693 -0.28457,4.77209 -4.64074,6.45764 c -40.01549,15.45459 -80.11856,17.88439 -121.4694,2.14526 a 2.6925094,2.7143996 7.3 0 1 -1.72932,-2.2547 q -2.58307,-26.53106 7.39891,-48.66218 z"
     id="path1146"
     style="stroke-width:2.18904" />
  <path
     fill="#fbfbfb"
     d="m 904.35135,274.95746 c 10.2228,-9.4566 28.39176,-13.13419 42.05132,-14.4476 q 33.82053,-3.28355 60.89883,4.96911 7.9024,2.38604 11.0327,6.76409 c 7.2676,10.13523 -13.3312,14.92921 -19.78877,15.71726 -30.90916,3.8089 -63.72273,-1.37911 -93.71248,-10.81382 a 1.2915289,1.2915289 0 0 1 -0.4816,-2.18904 z"
     id="path1148"
     style="stroke-width:2.18904" />
  <path
     fill="#008bc2"
     d="m 460.19677,639.32185 q -1.55423,13.37498 -9.56608,25.72113 -1.77311,2.7144 -3.08653,5.69146 -1.24776,2.78008 -3.2179,6.15118 -1.5104,2.58307 -2.56116,5.27556 -1.09451,2.75818 -2.18902,5.80094 -1.18209,3.23978 -3.06464,5.49449 c -3.98404,4.81585 -6.15118,10.13522 -10.00389,14.95107 q -15.93615,19.87642 -40.30007,40.5409 c -25.546,21.67141 -56.63025,37.49809 -87.23292,49.9756 q -17.57794,7.18001 -43.93386,15.14809 -63.74462,19.30725 -122.14803,23.00671 -27.34099,1.75125 -72.413166,1.53234 L 156.97205,697.55008 a 1.2477483,1.2696386 31.1 0 1 1.61989,-0.41592 q 50.98254,26.79376 108.02872,37.323 c 61.7526,11.40485 126.24148,9.32527 165.9943,-43.25526 q 15.08243,-19.92019 27.58181,-51.88005 z"
     id="path1162"
     style="stroke-width:2.18904" />
</svg>
